<svg width="32" height="32" version="1.1" viewBox="0 0 674.81 674.36" xmlns="http://www.w3.org/2000/svg">
 <defs>
  <style type="text/css">.fil8 {fill:none;fill-rule:nonzero}
    .fil0 {fill:black;fill-rule:nonzero}
    .fil7 {fill:white;fill-rule:nonzero}
    .fil1 {fill:#000099;fill-rule:nonzero}
    .fil6 {fill:#660000;fill-rule:nonzero}
    .fil4 {fill:#8A8A01;fill-rule:nonzero}
    .fil3 {fill:#939301;fill-rule:nonzero}
    .fil5 {fill:red;fill-rule:nonzero}
    .fil2 {fill:#FFCC00;fill-rule:nonzero}</style>
  <style type="text/css">.str4 {stroke:black;stroke-width:1.13778}
    .str3 {stroke:black;stroke-width:1.13808}
    .str2 {stroke:black;stroke-width:1.13818}
    .str8 {stroke:black;stroke-width:1.13828}
    .str6 {stroke:black;stroke-width:1.13848}
    .str5 {stroke:black;stroke-width:1.13858}
    .str7 {stroke:black;stroke-width:1.13878}
    .str1 {stroke:black;stroke-width:1.13888}
    .str0 {stroke:black;stroke-width:2.40736}
    .fil0 {fill:#0000DC}
    .fil2 {fill:red}
    .fil1 {fill:#FFF000}
    .fil4 {fill:#FFF020}
    .fil3 {fill:#FFF02D}
    .fil5 {fill:black;fill-rule:nonzero}</style>
 </defs>
 <g transform="translate(-2620.2 -606.2)">
  <path d="m2945.6 1280.3c-38.871-1.6178-79.827-10.702-115.68-25.66-24.38-10.17-55.427-27.386-63.041-34.957-9.7834-9.7279-12.366-24.873-6.3974-37.512 3.7333-7.9046 10.085-13.996 18.271-17.522 3.2403-1.3959 5.5797-1.7576 11.387-1.7606 5.7404 0 8.8476 0.3975 12.491 1.6096 3.7603 1.2512 6.1668 2.4992 14.812 7.6823 13.349 8.0026 21.769 12.459 32.64 17.275 21.208 9.3954 45.827 16.592 69.92 20.439 9.2979 1.4844 19.042 1.9796 39.04 1.9841 26.116 0.01 33.807-0.6229 51.68-4.2241 42.612-8.5858 82.931-27.215 116.12-53.654 6.3326-5.044 12.037-10.302 22.119-20.388 13.071-13.076 17.958-18.626 25.715-29.2 23.324-31.798 40.102-69.714 47.706-107.81 7.8218-39.186 6.4666-84.064-3.6527-120.96-6.7748-24.705-18.068-51.618-28.997-69.104-5.5658-8.9051-6.9265-13.496-6.6114-22.306 0.1239-3.4635 0.3589-5.2893 0.9911-7.6992 2.5605-9.7597 9.0927-17.201 19.344-22.037 4.2855-2.0215 6.4842-2.4719 12.1-2.4788 10.133-0.0125 16.833 2.5189 23.527 8.8895 6.5092 6.1943 11.718 14.31 20.272 31.585 15.53 31.362 25.779 62.372 31.216 94.45 3.285 19.38 4.5398 35.408 4.5304 57.87-0.01 17.89-0.4738 26.505-2.1911 40.48-9.2047 74.904-42.805 143.65-96.262 196.96-33.821 33.726-72.88 59.038-117.61 76.216-40.74 15.645-89.706 23.659-133.44 21.839zm-88.542-106.35c-11.692-2.232-21.561-9.8268-27.081-20.84-2.8802-5.7462-3.5107-8.7088-3.5381-16.626-0.026-7.4577 0.6614-10.878 3.2091-15.971 2.2373-4.4725 3.345-5.7419 16.082-18.429 43.709-43.536 268.66-262.41 280.51-272.94 5.7339-5.0924 10.321-8.0237 15.063-9.6269 11.563-3.9085 24.052-2.0664 33.973 5.0111 7.5265 5.369 12.573 12.932 15.002 22.484 1.8535 7.2888 1.15 14.834-2.1122 22.652-1.4176 3.3976-2.4676 5.0108-5.579 8.5715-7.6553 8.7609-53.134 53.364-175.07 171.69-92.456 89.725-120.19 116.45-122.55 118.07-3.3258 2.2882-8.8541 4.5473-13.772 5.6277-3.1608 0.6944-11.239 0.8811-14.142 0.3269zm-163.32-39.386c-7.4942-1.494-12.362-3.9928-17.384-8.9225-6.1392-6.0275-12.723-16.604-21.338-34.278-17.485-35.87-27.564-69.692-32.614-109.44-2.703-21.275-2.8039-46.505-0.2957-73.92 5.2819-57.732 27.521-115.71 63.013-164.28 21.234-29.057 48.366-55.616 78.244-76.59 74.939-52.608 168.88-72.406 258.56-54.491 21.008 4.197 40.91 10.211 63.2 19.097 19.771 7.8819 50.803 24.723 61.759 33.515 4.7031 3.7746 8.4042 9.7615 10.265 16.605 0.8617 3.1684 1.1894 10.554 0.6239 14.06-1.1046 6.8474-4.3844 13.181-9.3495 18.054-4.5522 4.4682-7.8026 6.541-13.032 8.3109-9.452 3.1989-18.124 2.3084-28.31-2.9068-1.956-1.0015-6.0764-3.3404-9.1564-5.1976-10.7-6.4522-17.944-10.367-26.56-14.355-23.675-10.958-47.99-18.424-73.904-22.693-17.162-2.8274-49.327-3.6658-67.696-1.7645-41.568 4.3024-80.915 17.81-116.32 39.932-7.3957 4.6211-12.286 7.9992-19.84 13.706-7.6908 5.8097-10.47 8.1844-19.173 16.381-11.284 10.628-22.778 22.936-29.337 31.414-27.745 35.864-45.985 77.865-53.851 124-2.0144 11.814-2.4186 19.059-2.4285 43.52-0.01 13.455 0.1251 21.336 0.4127 24.917 1.3433 16.728 7.5961 44.282 14.451 63.681 5.8437 16.537 11.994 29.641 21.35 45.489 6.6532 11.27 7.7954 14.572 7.8009 22.554 0.01 11.169-4.4011 19.965-13.747 27.427-3.7648 3.006-8.6036 5.1076-14.207 6.1706-3.0495 0.5785-8.2389 0.58-11.132 0zm-48.066-212.78c9.4106-2.0125 23.741-5.1785 27.062-5.9788 2.7855-0.67131 2.8082-0.68476 2.24-1.3272-0.8632-0.97587-6.9705-4.9318-16.168-10.472-4.5284-2.728-8.1283-4.9922-7.9999-5.0315 0.1285-0.0393 4.5536-1.3064 9.8336-2.8157 12.304-3.5171 18.08-5.3157 18.08-5.6301 0-0.72319-24.369-13.494-31.43-16.471-3.0151-1.2712-3.4355-1.024-3.4453 2.0263 0 1.2317 0.1221 1.4497 1.3556 2.3438 0.748 0.5422 4.744 2.7051 8.88 4.8065 8.3148 4.2245 10.679 5.6 10.401 6.0508-0.2043 0.33052-2.8217 1.1655-13.441 4.2876-8.3325 2.4499-12.078 3.7543-12.042 4.1933 0.015 0.176 4.3687 2.9495 9.676 6.1634 10.171 6.1591 12.875 7.9617 12.603 8.4018-0.1715 0.27763-4.7712 1.3933-13.917 3.3755-2.904 0.62941-6.0184 1.3554-6.921 1.6133-1.6265 0.46472-1.6456 0.48529-2.16 2.3185-0.7181 2.5592-0.686 3.5676 0.1134 3.5676 0.3478 0 3.6238-0.63972 7.28-1.4216zm36.895-58.498c0.5577-0.90916 7.3527-20.995 7.3527-21.735 0-0.31323-0.7113-0.61669-3.1272-1.3342l-1.6349-0.48549-1.9206 5.8171c-3.1359 9.4975-5.1573 15.984-5.1573 16.548 0 0.72677 0.9011 1.472 2.24 1.8527 1.6065 0.4567 1.5497 0.47348 2.2473-0.66388zm-14.212-5.1098c0.8445-1.6666 6.8446-19.338 6.8446-20.159 0-0.33664-3.9032-2.1712-4.6195-2.1712-0.2843 0-6.0384 18.155-6.7029 21.148-0.1011 0.45555-0.01 1.0648 0.2093 1.3538 0.331 0.44247 2.3989 1.3996 3.1877 1.4754 0.1291 0.0124 0.6154-0.72885 1.0808-1.6472zm-13.721-3.8502c0.5893-0.63693 3.3862-8.8311 5.5325-16.209 0.8803-3.0259 1.1609-5.6345 0.6698-6.2263-0.5302-0.63883-2.274-0.92538-2.8289-0.46486-1.6663 1.3829-6.4907 15.361-7.3143 21.192-0.1858 1.3153-0.1265 1.6419 0.3632 2 0.942 0.6888 2.8113 0.53622 3.5777-0.29202zm41.144-27.692c0.7729-0.85397 4.782-9.3678 6.1299-13.018 1.4765-3.9979 1.6817-5.6144 1.0069-7.9355-1.0028-3.4494-4.0013-6.2501-7.4604-6.9682-1.5394-0.3196-2.0913-0.29531-3.5968 0.15832-3.2136 0.96834-2.9673 1.0254-3.9742-0.92125-1.8577-3.5918-6.9647-5.5376-11.207-4.2701-1.8251 0.54534-3.5086 2.3794-5.9172 6.4463-2.5262 4.2654-6.1199 11.23-6.1199 11.859 0 0.28812 2.4952 1.7298 6.48 3.7439 8.357 4.2242 23.337 11.441 23.79 11.461 0.1927 9e-3 0.5835-0.24195 0.8683-0.5567zm-5.6987-7.8546c-3.3958-1.8246-5.28-3.0936-5.28-3.5558 0-0.61146 2.6661-5.6574 4.1217-7.8009 1.7109-2.5194 2.5911-3.0963 4.7232-3.0963 1.417 0 1.824 0.14462 2.6592 0.94475 1.4394 1.3791 1.793 3.0304 1.1803 5.513-0.5085 2.0607-3.9511 9.1235-4.5244 9.2823-0.176 0.0487-1.472-0.53038-2.88-1.2869zm-14.768-7.4276c-1.9095-0.99507-3.5211-1.8562-3.5814-1.9137-0.1565-0.14908 2.6992-5.3894 4.1986-7.7046 2.0531-3.1702 3.4211-3.5966 6.0412-1.883 1.6794 1.0984 2.0568 2.4502 1.3999 5.0143-0.669 2.6114-3.3721 8.0723-4.0583 8.1988-0.2906 0.0535-2.0906-0.71679-4-1.7118zm38.712-26.52c3.0384-1.0242 4.9758-2.1435 7.1512-4.1316 5.9044-5.3963 9.8224-14.811 7.9895-19.198-0.7377-1.7657-7.2189-7.1036-9.3781-7.7238-1.0708-0.3076-2.4543 1.131-6.1424 6.3868-3.6948 5.2656-3.6406 4.8931-0.9814 6.7359 1.1909 0.8253 1.284 0.84079 2.0471 0.34076 0.4398-0.28812 1.7495-1.8182 2.9106-3.4001 1.3853-1.8873 2.322-2.8762 2.7246-2.8762 0.8126 0 2.9984 2.0004 3.4945 3.1981 0.5642 1.3621 0.1998 2.7808-1.6431 6.3962-2.089 4.0984-4.3979 6.6715-7.2442 8.0733-2.0062 0.98804-2.3428 1.0523-5.5093 1.0523-3.16 0-3.5062-0.0657-5.4931-1.0431-6.1645-3.0322-8.0957-10.426-4.5885-17.567 2.027-4.1274 5.2213-6.3478 10.299-7.159 1.1855-0.18937 2.3409-0.49832 2.5677-0.68655 0.4439-0.36841 0.5733-3.688 0.1675-4.2962-0.3794-0.56856-1.9671-0.72338-4.1901-0.40857-8.5491 1.2107-16.339 10.882-16.36 20.311-0.01 3.8424 1.9132 8.2387 5.1409 11.761 4.0628 4.4337 11.191 6.2056 17.038 4.2349zm33.912-39.211c3.1034-1.3238 5.3126-2.8176 5.5467-3.7504 0.149-0.59343-0.028-1.0223-0.7227-1.7524-1.5676-1.6474-1.8065-1.6777-4.3602-0.55206-1.2758 0.56234-3.0015 1.0896-3.8349 1.1717-1.4587 0.14369-1.6007 0.0792-3.8136-1.731-1.2641-1.0341-5.5959-5.1093-9.6262-9.0558l-7.3279-7.1756-2.1385 2.1538-2.1386 2.1538 5.6001 5.5018c5.9424 5.8381 11.442 10.837 13.463 12.237 2.8902 2.0029 5.9233 2.2619 9.3532 0.79877zm8.5714-6.4945c2.7854-3.8216 3.8516-8.2999 2.8064-11.788-0.4893-1.6334-4.0024-5.6319-12.346-14.052l-6.8176-6.88-3.8798 4.0698 7.3191 7.4051c11.466 11.6 11.685 11.978 9.6818 16.676-0.5233 1.2269-0.9514 2.4865-0.9514 2.7991 0 0.69438 2.144 3.1302 2.7552 3.1302 0.2425 0 0.8869-0.612 1.4321-1.36zm21.336-19.489c1.3547-1.011 1.6498-1.3939 1.5131-1.9634-0.7694-3.2061-5.2558-25.954-5.1413-26.069 0.081-0.081 0.9118 0.28381 1.8462 0.81069 5.1456 2.9013 20.084 11.422 20.934 11.94l0.9947 0.60672 2.1253-1.6089c1.1688-0.88487 2.1252-1.8057 2.1252-2.0462 0-0.46196-3.4067-2.5061-13.12-7.8725-8.9587-4.9496-21.762-11.614-21.95-11.425-0.3917 0.39174 6.2346 36.206 7.0677 38.2 0.5737 1.373 1.1133 1.2873 3.6055-0.57255zm40.717-27.267c0-0.16281-1.9998-4.1272-4.4439-8.8098-5.8608-11.228-8.3561-16.244-8.3561-16.796 0-0.54385 4.683-2.9988 7.9391-4.1618 2.8626-1.0225 4.5352-1.0595 6.1773-0.13659 1.7639 0.99135 2.6408 2.9048 2.4622 5.373-0.1847 2.5536-1.3565 4.2254-3.8406 5.4794-1.0219 0.51584-1.858 1.0136-1.858 1.106 0 0.64644 1.4685 2.8126 2.4707 3.6447 1.1461 0.95147 5.8781 3.405 11.392 5.9066l2.5022 1.1353 6.1391-3.0819-2.5318-1.3778c-6.3752-3.4694-8.8526-4.9044-9.6474-5.588l-0.8577-0.73779 0.9467-2.3515c0.7909-1.9647 0.9466-2.8003 0.9466-5.0792 0-2.3218-0.1297-2.9918-0.872-4.5032-0.9441-1.9224-3.8467-5.0292-5.2787-5.6501-1.2836-0.55654-6.0561-0.50577-8.1112 0.0863-2.0605 0.5936-15.658 7.1705-15.658 7.5736 0 0.64694 13.764 27.604 15.272 29.91l0.4605 0.70427 2.3735-1.1744c1.3054-0.64594 2.3735-1.3076 2.3735-1.4705zm38.56-17.311c7.8551-2.7246 10.228-3.8958 12.856-6.3458 3.984-3.7138 5.8673-7.6798 5.8601-12.341-0.012-7.9922-5.6006-15.155-13.032-16.704-3.8991-0.81264-10.517 0.33954-18.294 3.1848-3.685 1.3483-4.2494 1.7499-3.9941 2.8423 0.2336 0.99935 10.045 30.827 10.26 31.19 0.1957 0.33127-0.246 0.4585 6.3441-1.8274zm-2.3228-6.0126c-0.9717-1.0377-1.6707-2.8255-4.5055-11.523-3.4294-10.522-3.3125-9.7042-1.5002-10.506 5.0061-2.2145 11.585-2.8058 14.62-1.3142 4.6345 2.2779 7.5521 7.7475 6.6721 12.508-0.8003 4.3291-3.0227 6.7956-8.6702 9.6226-4.2641 2.1345-5.5353 2.3675-6.6166 1.2129zm50.984-6.6642c4.4379-0.80453 8.7205-3.8132 10.282-7.2231 2.0632-4.5066-0.5459-10.071-5.611-11.966-2.6151-0.97842-4.3707-1.3973-4.9402-1.1787-0.5844 0.22424-1.6948 3.4527-1.4273 4.1498 0.099 0.25701 1.3319 0.93191 2.7407 1.4998 3.4152 1.3767 3.7324 1.7648 3.7339 4.5689 0 2.1642-0.037 2.274-1.1005 3.1624-1.1505 0.96119-3.0851 1.7028-5.3558 2.0532-1.686 0.26013-4.5432-0.45012-7.1943-1.7884l-1.988-1.0035-0.909 1.0748c-1.4396 1.702-1.9178 2.7525-1.5586 3.4237 0.4137 0.77303 3.6665 2.4853 5.8233 3.0653 2.0921 0.56265 4.953 0.62423 7.5052 0.16155zm-4.8372-16.667c0.5195-0.23671 0.9276-0.78205 1.1278-1.5072 0.4365-1.581-0.215-2.453-2.6618-3.5624-2.4634-1.117-3.2257-1.9266-3.1844-3.3824 0.063-2.2336 1.9787-3.8134 5.3002-4.3714 1.655-0.27804 2.3208-0.24043 3.9142 0.22112 1.056 0.30588 2.424 0.57802 3.04 0.60474 1.054 0.0457 1.1766-0.0597 2.08-1.7877 1.1556-2.2105 0.9854-2.6746-1.3137-3.5816-2.4152-0.95271-8.5178-0.91716-11.326 0.066-5.4479 1.9071-8.4047 6.2485-7.3786 10.834 0.8447 3.7744 4.4813 6.7848 8.2436 6.8241 0.7397 8e-3 1.7112-0.15287 2.159-0.35687zm-139.98 429c-7.4816-1.5379-13.726-4.9116-19.219-10.384-5.6424-5.6211-9.0703-11.98-10.775-19.988-0.7326-3.4424-0.7178-11.221 0.028-14.527 1.9022-8.4363 4.7199-13.218 11.852-20.112 2.4829-2.4002 11.786-11.505 20.674-20.233 8.888-8.7281 27.824-27.24 42.08-41.137 14.256-13.897 31.176-30.393 37.6-36.657 31.12-30.344 129.04-125.45 144.65-140.48 42.468-40.915 53.864-50.656 60.953-52.102 2.3505-0.47958 17.029 0.0756 19.494 0.73727 1.0419 0.27968 3.114 1.08 4.6045 1.7785 9.5677 4.4836 17.596 13.221 20.717 22.55 0.8066 2.4104 0.8747 3.0878 1.1655 11.591 0.3543 10.358 0.2984 10.752-2.1029 14.809-5.3341 9.0111-21.815 25.779-100.04 101.78-108.26 105.18-188.4 182.82-199.52 193.29-1.232 1.1605-2.888 2.5457-3.68 3.0782-4.0422 2.7181-10.39 5.1385-15.759 6.0093-3.5857 0.5816-9.8795 0.5791-12.721-0.01z" fill="#73caff"></path>
 </g>
</svg>